# xmcd
#
# Track frame offsets: 
#        150
#        13199
#        29969
#        42198
#        60733
#        89772
#        109247
#        124484
#        143115
#        162041
#        172296
#        184123
#        202390
#        219103
#        235449
#
# Disc length: 3366 seconds
#
# Revision: 0
# Processed by: cddbd v1.5.2PL0 Copyright (c) Steve Scherf et al.
# Submitted via: ExactAudioCopy v1.3
#
DISCID=ed0d240f
DTITLE=Bob Margolin - Bob Margolin
DYEAR=2018
DGENRE=Blues
TTITLE0=One More Day
TTITLE1=I Shall Be Released
TTITLE2=Detroit
TTITLE3=Mercy
TTITLE4=Best I Can Do
TTITLE5=Blues Before Sunrise
TTITLE6=Dallas
TTITLE7=Hpw Long, How Long Blues
TTITLE8=Peace Of Mnd
TTITLE9=She's So Pretty
TTITLE10=Look What You Done
TTITLE11=Head Held High
TTITLE12=Goin' Away Baby
TTITLE13=My Road
TTITLE14=One More Mile
EXTD=
EXTT0=
EXTT1=
EXTT2=
EXTT3=
EXTT4=
EXTT5=
EXTT6=
EXTT7=
EXTT8=
EXTT9=
EXTT10=
EXTT11=
EXTT12=
EXTT13=
EXTT14=
PLAYORDER=
